<?xml version="1.0" encoding="UTF-8"?>
<svg id="Layer_1" xmlns="http://www.w3.org/2000/svg" version="1.1" viewBox="0 0 554.4 339.8">
  <!-- Generator: Adobe Illustrator 29.0.0, SVG Export Plug-In . SVG Version: 2.1.0 Build 186)  -->
  <path d="M188.6,119.1l-1,28c-1,28.9-1.7,57.8-2.2,86.8-.2,13.6-.5,26.9,1,40.5,1.7,15.9,7.6,43,22.5,51.7,3.3,2,8.6,3.9,10.7-.8,1.2-2.6-.9-6,2.4-7.6,2.8-1.4,6.3,1.2,5.6,4.2-.4,1.7-2,4.1-3.2,5.5-8.2,9.6-18.3,3.9-25.2-3.8-21.2-23.8-19.8-71.8-19.3-101.8.5-29.9,1.8-59.8,2.9-89.7.2-4.6.2-9.2.4-13.8l-53.3-18.7c-10.5,13.5-20.1,27.6-30.8,41-8.6,10.8-20.7,24.7-36.2,23.3-11.2-1-17.4-14.4-12-24,1.6-2.9,3.8-6.1,7.6-5.2,2.6.6,2.9,4.2.5,5.4-2.3,1.2-4.6-1.3-6.4,2.7-2.3,4.9,0,13.1,4.6,16,12.1,7.7,27.2-5.9,34.6-14.7,6.4-7.6,12.6-16.3,18.6-24.4,5.2-7,10.2-14.1,15.2-21.2l-.4-.5c-13.4-3.2-28-7.3-41.9-7-40.2,1-68.1,42-71.1,79-2.9,34.5,13.7,66,48,75.7,11.5,3.3,22.9,2.9,33.4-2.9.2-6.7.2-13.4,0-20,0-10.8,0-21.8-.3-32.6-.2-7.9.3-20.9-9.7-22.7-.7-.1-1.4.1-2-.2-.9-.4-1.1-1.9,0-2.2l90.9-1,.6.4.3,14.1c-.2,1-1.4,1.1-1.9.3-.4-.7-.5-2.5-.8-3.5-2.5-8.3-11.1-7.2-18-7.2s-6.6-.2-9.8.2l-44.9.5,1.3,71.7c4.8-1.4,9.4-3.4,14.2-4.9,14.2-4.2,33.7-6,32.1,14.8-.2,2-1.1,5.1-3.3,5.6-4.3.9-7-3.2-4.3-6.7,1.7-2.1,4.2-1.9,3.7-5.3-.6-3.7-4.8-5.9-8.2-6.2-11.5-1-23.2,5.1-33.7,8.9-.6,3.9-.2,7.9-.3,11.8-.2,8.4-.5,16.8-.7,25.2-.4,14,.2,29-9.7,40.2-8.5,9.7-25.6,12.7-33.4.5-2.9-4.5-3.6-16.2,1.7-19,4.4-2.4,7.5,3.7,3.4,6.2-1.6,1-2.6.3-3.4,2.4-1.3,3.3,0,6.4,2.1,9.1,5.8,8.3,16.1,5.8,23,.3,11.7-9.4,10.8-26.3,11.6-39.9v-34.7c-20.3,8.9-45.7,1.5-61.8-12.5-26.2-22.8-29.8-57.2-20.1-89.2,6.1-20.1,17.1-36.5,34.3-48.7,22.7-16.1,46.4-13.9,72.3-7.8,2.8.7,6.7,2.1,9.3,2.5,1.4.2,2.4-1.8,3.3-2.8,5.4-6.9,10.5-14.4,15.7-21.5,15.1-20.8,30-41.8,45-62.6h3.3c1,.8.3,2,.2,3-.4,11.6-1.5,23.2-2.2,34.8l-4.3,69.3c.1.4.5.3.8.4,7.3.7,19.5-3.9,24.4-9.5,5.4-6.2,7.2-18.6.4-24.4-4-3.4-5.1.6-9.3,0-3-.4-4.3-4.4-1.7-6.2,3.5-2.4,10.9.6,13.9,3.1,7.4,6.2,7.2,17.5,3.7,25.7-5.1,11.8-20.6,16.7-32.6,16.7h-.2ZM183.6,112.7l8.6-100.7-58.8,83.1,50.1,17.6h.1Z"/>
  <path d="M292.8,117l15.1,39.6c.5.1.3-.2.4-.5,4.1-10.3,8.3-21.1,11.9-31.5.9-2.5,1.8-5,2.1-7.6h13.8l.2.5c-.4.6-5-.2-5.4,2.5-.4,2.4,0,7,0,9.6.1,8.1.5,16.3.7,24.4,0,2.5-.5,9,.4,10.9.7,1.5,3.2,1.3,4.6,1.7.4.1.6,0,.5.5h-18.2c-.1-.6,0-.4.5-.5,1.3-.3,2.7,0,3.9-.9,2-1.4.9-5.9.9-8-.2-12.4-.3-24.7-.8-37.1l-17.8,46.4-1.1.2-18.4-46.5-.9,39.7c.3,2.9,1.5,4.9,4.3,5.7,1.1.3,2.2.3,3.3.6.4.1.6,0,.5.5h-16.8c-.1-.6.1-.4.5-.5.8-.2,1.7-.2,2.6-.5,3-1,3.9-3.5,4.1-6.5.6-8.3.3-17.3.5-25.7,0-3.6.6-7.6.2-11.3s-3.6-4.9-7-4.9v-.7h15.4Z"/>
  <path d="M326.3,233.5c0-.6,0-.4.4-.5,1.6-.2,4.4-.1,5-2l.2-44.4c-.4-2.4-3.1-2.1-4.9-2.5-.4,0-.7.2-.6-.5,6.8.3,14-.4,20.8,0,7.8.4,17.2,3.2,16.4,12.8-.5,6.7-6.5,9.4-12.1,11.2-.3,0-.4-.2-.4.4,3.9,5.5,7.3,11.5,11.2,17.1,1.6,2.3,4.3,6.2,6.8,7.4.6.3,1.3.3,1.8.6.3.1.4-.1.3.5-6.3.5-10.6,1.3-14.7-4.1s-7.4-14-11.7-19.2c-.4-.4-1.2-1.4-1.8-1.4h-3.7v21.7c0,2.3,4.4,2.3,5.9,2.5.4,0,.4-.1.4.5h-19.3ZM339.3,207.9h5.9c1.4,0,4.8-1.3,6-2.1,4.9-3,5.8-9.5,3.6-14.5-2.6-6.2-9.6-6.8-15.6-6.6v23.3h.1Z"/>
  <path d="M215.7,300.5c0-1,1.8-.6,2.5-.8,1.7-.3,2.8-.9,3-2.7v-42.2c.2-3.4-2.8-3.8-5.5-3.7v-.7c14.1.6,32.6-3.1,43.2,8.8,8.7,9.7,7.4,25.4-2.3,34-11.4,10.1-26.9,6.9-40.9,7.4h0ZM228.8,251.5l-.4.4v43.2s.3,1.6.4,1.8c.5,1.7,2.6,2.2,4.1,2.4,29.3,3.1,29.7-39.1,9.3-46.4-1-.3-3.9-1.3-4.7-1.3h-8.7Z"/>
  <path d="M475.3,278.6c0,.5-.5.4-.8.5-2.1.5-4.3,0-4.7,3-.2,1.8-.3,10.6,0,12.2,0,.3.2.7.6.8.8.3,1.6-.4,2.2.2-4.1,2.7-9.5,4.2-14.3,5.1-15.9,2.8-32.8-2.1-35.1-20.2-2.6-20.9,15.5-34.5,35.3-29.5,1.7.4,5.4,2.2,6.8,2.2s1.9-2.5,2.4-2.5l2,15.6c-.5,0-.6-.2-.8-.5-4-6.8-6.5-11.7-14.9-13.9-30.1-7.9-30.2,51-.8,48.5,3.1-.3,8.8-1.9,9.3-5.6.3-2.8.3-8.9,0-11.8-.3-3.7-3.8-3.1-6.6-3.5-.4,0-.7,0-.8-.5h20.2,0Z"/>
  <path d="M532.1,288v-31.3c0-1.1-1-3.1-1.9-3.8-1.9-1.6-4.8-1.5-7.1-2.1l.2-.5h17.4v.7c-2.7,0-5.2.8-6.3,3.4-.2.4-.7,1.9-.7,2.2v44.5l-.9-.2c-10.2-13.4-20.2-26.9-30.5-40.3-.9-1.2-2-2.9-3-3.9s-.2-.5-.7-.4v36.8c0,.6.5,2.5.8,3,.7,1.6,2.3,2.6,3.9,3,1.2.4,3.3.3,4.1.7.3.2.4,0,.3.5h-17.5c0-1,1.9-.8,2.9-1.1,2.5-.8,3.7-2.5,4.1-5-.6-12,.9-25,0-36.9-.3-4.3-2.7-6.3-7-6.3v-.7h13.6l28.2,37.7h.1Z"/>
  <path d="M389,117l2.5,12c-.5.5-1.8-2.7-2-3-2.5-4.2-6-7.8-11.3-7.8h-10.9v23h8.8c.5,0,2.2-.4,2.8-.6,3.6-1.1,4.8-4.8,5.5-8.1h.7c0-.1,0,18.7,0,18.7,0,.1-.6.5-.7.4-.6-3.1-1.6-7-4.7-8.4-.4-.2-2-.8-2.4-.8h-10v21.5c0,.5,1,1.7,1.5,1.9,1.5.6,6.1.5,8,.4,6.8-.3,10.2-1.8,14.2-7.4.9-1.2,1.7-3,2.4-4,.2-.3.5-.1.7-.2l-3.6,12.5h-36.2c-.1-.6,0-.4.5-.5,2-.5,4.7.2,5-2.9v-43.7c-.4-2.7-5-2-5.4-2.5l.2-.5h34.4Z"/>
  <path d="M316,250.3l2.2,12c-1.4-1.4-2-3.5-3.2-5.1-2.2-3.1-6-5.7-9.9-5.7h-10.9v23h7.8c.9,0,3-.4,3.9-.7,3.4-1.2,4.7-4.9,5.1-8.2h.7v19.2c-.4,0-.5,0-.7-.4-.5-1.3-.6-3.1-1.4-4.6s-1.7-2.6-2.8-3.2c-.3-.2-2.5-.9-2.7-.9h-10v21.7c0,.7,1.5,1.7,2.3,1.8,3.4.4,11,.2,14.2-1,3.7-1.4,6.1-4.7,8.3-7.8.4-.5,1.4-3,2.1-2.5l-4,12.5h-35.9c0-1,1.9-.7,2.6-.8,1.2-.2,2.2-.7,2.7-1.9l.2-43.9c-.3-1.6-.8-2.1-2.3-2.5-1-.3-3.1,0-3.2-1h34.9Z"/>
  <path d="M473.6,183.7l2.2,11.8c-.5,0-.6-.2-.8-.5-.6-1-1-2.3-1.7-3.4-5.2-8.5-12.8-6.7-21.5-6.9v23h9.7c3,0,5.3-2.9,6.3-5.5.3-.9.5-2.3.8-3,.2-.3.3-.5.7-.4v19.2c-.4,0-.5,0-.7-.4-.4-.9-.6-2.7-1.1-3.9-1.1-2.5-3.5-4.8-6.5-4.8h-9.2v21.7c0,1.3,2,1.9,3,2,9,.9,15.3.1,20.7-7.4.5-.6,2.4-4.1,2.8-4.2.5,0,.2.7.1.8-.7,2.9-1.8,6.6-2.8,9.4-.2.7-.4,1.6-.9,2.2h-35.9c0-.6,0-.4.4-.5,2.4-.4,5.2-.2,5.2-3.5v-42.7c-.5-2.7-3-2.3-4.9-2.8-.4,0-.7.2-.6-.5h34.8v.3Z"/>
  <path d="M213.1,167.1c0-.5,0-.4.3-.5.9-.4,1.7-.4,2.6-1,2.8-1.5,4.6-5.7,5.8-8.6,4.5-10.8,7.9-22.4,12.3-33.3l-1.3-4.3c1-.3,2.1-.6,3.1-1.1s3.3-2.5,3.5-2.5c.5,0,.3,0,.4.3.4.9.6,2.2.9,3.2,5.2,14.9,11.1,29.6,17,44.2,1.7,2.6,2.7,2.3,5.3,3.1.4.1.6-.1.5.5h-19.4c-.1-.6,0-.4.5-.5,1.9-.5,5-.2,4.5-3.2l-5.7-16-16.5.2c-1.1,3.8-3.3,7.8-4.3,11.6-.6,2.4-.9,4.7,1.4,6.1,1.4.9,2.9.8,4.4,1.2.4.1.6,0,.5.5h-15.8,0ZM242.8,146.2c0-.4,0-.8-.2-1.2-1.7-6.3-5.3-12.8-7-19.1l-.6-.6-7.3,20.9h15.1Z"/>
  <path d="M261.5,233.5c-.1-.7.2-.4.6-.5,4.9-1.7,6.3-4.7,8.2-9.3,4.5-10.8,7.8-22.4,12.3-33.3l-1.3-4.6c2.6-.4,4.8-2,6.8-3.6,1.5,4.7,3.2,9.3,5,14,3.4,9.2,6.7,18.5,10.3,27.6.9,2.2,2.4,6.5,4.3,8,1.2.9,2.4,1,3.7,1.3.4,0,.7-.2.6.5h-19.4c0-.6,0-.4.4-.5,1.8-.3,4.5-.2,4.9-2.5l-5.7-16.3h-16.8c-.9,3.8-3.2,7.8-4.2,11.7-1.4,5.8,1.2,6.3,5.9,7.2.4,0,.4-.2.4.5h-15.8l-.2-.2ZM291.5,212.7l-7.9-20.9-7.4,20.9h15.4-.1Z"/>
  <path d="M497.6,167.1c0-.5,0-.4.3-.5.9-.4,1.8-.4,2.8-1,1.5-.9,2.5-2.3,3.4-3.8,5.6-12.3,9.5-25.4,14.5-38l-1.4-4.4c1.1-.3,2.4-.7,3.4-1.2.8-.4,2.8-2.3,3.2-2.4.5,0,.3,0,.4.3.6,1.3,1.1,3.6,1.6,5.1,5.2,14.2,10.4,28.4,16.3,42.2,1.7,2.6,2.7,2.3,5.3,3.1.4.1.6-.1.5.5h-19.4c0-.6,0-.4.5-.5,1.9-.5,5-.2,4.5-3.2l-5.7-16-16.5.2c-1.1,3.7-3,7.2-4,10.8-.7,2.5-1.4,5.2,1.2,6.9,1.5.9,2.9.8,4.4,1.2.4.1.6,0,.5.5h-15.8v.2ZM527.3,146.2l-7.4-21.1-7.7,21.1h15.1Z"/>
  <path d="M249.3,183.7l2.2,11.8c-.3,0-.5.1-.7-.2-.4-.5-.9-2.2-1.4-2.9-3.3-5.5-6.1-7.3-12.6-7.8-2-.1-5.6-.2-7.5,0-.4,0-.6,0-.8.4v22.3l.4.4h8.9c.4,0,2-.6,2.5-.8,3-1.5,4-5,4.5-8h.7v19.2h-.7c-.6-3.2-1.5-6.9-4.8-8.3-.5-.2-2.4-.8-2.8-.8h-8.4l-.4.4v20.4c0,.1.4,1.4.5,1.7.9,1.8,4.6,1.6,6.3,1.8q.4,0,.4.5h-19.9c0-.6,0-.4.4-.5,2.6-.4,5.2-.2,5.2-3.7v-42.2c-.4-3-2.8-2.5-4.9-3-.4,0-.7.2-.6-.5h33.6v-.2Z"/>
  <path d="M511,183.7c.1.7-.1.4-.5.5-1.9.5-4.2.1-3.4,3.1l12.2,23,9.4-17c1.5-3.1,3.6-7.1-1-8.6-.9-.3-1.9-.3-2.8-.5-.4,0-.7.2-.6-.5h16.5c0,.7,0,.4-.5.5-3.9,1.3-4.8,1.4-7.3,4.9-5,6.8-8.4,16.2-12.9,23.5v18.1c.7,2.3,3.2,2.1,5.1,2.4.4,0,.4-.1.4.5h-18.5c0-.5.5-.4.8-.5,1.6-.4,4.1-.1,4.6-2.1v-17.8c-4.6-7.5-8.1-16.9-13-24.1-1.2-1.8-2.7-3.5-4.8-4.3-1-.3-2.3-.2-2.9-1h19.4-.2Z"/>
  <path d="M368.5,263.5l-.7-.2c-2.7-6.8-7.2-13.8-15.6-12.5-7.8,1.2-9.6,11.2-3.6,16,7.8,6.3,22.9,6.2,21.7,20.5-1,12.2-13.1,15.2-23.3,13-1.3-.3-5-1.7-6-1.2-.6.3-.7,1.4-1.4,1.3l-1.7-14.9h.7c2,6.1,5.7,12.9,12.4,14.3,6,1.2,13.5-1.5,14.2-8.4,1.5-15.4-26.5-10.5-25.2-28.8.7-9.4,9-14.1,17.8-12.8,2,.3,5.5,1.9,7,1.9s1.3-.7,1.9-1.5l1.8,13.2h0Z"/>
  <path d="M403.3,183.7c.1.7-.2.4-.6.5-2,.5-4.5,0-4.9,2.8v43.8c.5,1.4,1.6,1.8,3,1.9,6.9.7,13.2,0,17.9-5.4,1.6-1.8,2.6-4.1,4-5.9.2-.3.4-.6.8-.5l-4,12.7h-34.7c0-.6,0-.4.4-.5,1.6-.2,4.6-.2,5-2.2v-44.2c-.6-2.5-2.9-2-4.8-2.5-.4,0-.7.2-.6-.5h18.5Z"/>
  <path d="M429,117v.7c-2.8,0-5.2.2-5.5,3.5v41.5c.1,1.4.3,2.5,1.7,3,2.9,1,11,.3,13.8-.9,4.8-2,6.5-6,9.3-9.9.2-.3.2-.7.8-.6l-3.6,12.7h-34.8c0-.6,0-.4.5-.5,2.4-.6,4.6.2,5-3.2-.7-13.7,1-28.4,0-42-.3-3.6-2.5-3.6-5.5-3.7v-.7h18.3Z"/>
  <path d="M406.7,250.3c.8.7-3.1.9-3.4,1-1.4.4-2.3,1.1-2.4,2.7v43.2c.2,1.6,1.7,2.2,3.1,2.5.8.1,2.7-.3,2.7.8h-19c0-.6,0-.4.5-.5,3-.8,5,.4,5.5-3.9-.6-13.3.9-27.3,0-40.5-.3-4.4-2-4.3-6-4.4v-.7h19v-.2Z"/>
  <path d="M482.8,117l.2.5c-.5.7-5.4-.5-5.9,3,.7,13.8-1,28.8,0,42.4.3,3.9,2.9,3.2,6,3.7,0,0-.3.5-.4.5h-18.8c-.1-.7.1-.4.6-.5,3.1-.8,5.1.4,5.5-3.9v-42c-.5-3.9-5.3-2.5-5.9-3.3l.2-.5h18.5,0Z"/>
</svg>